<?xml version="1.0" encoding="utf-8"?>
<!-- Generator: Adobe Illustrator 25.2.1, SVG Export Plug-In . SVG Version: 6.00 Build 0)  -->
<svg version="1.1" id="svg" xmlns="http://www.w3.org/2000/svg" xmlns:xlink="http://www.w3.org/1999/xlink" x="0px" y="0px"
	 viewBox="0 0 400 400" style="enable-background:new 0 0 400 400;" xml:space="preserve">
<style type="text/css">
	.st0{fill-rule:evenodd;clip-rule:evenodd;fill:#F7F7F7;}
	.st1{fill-rule:evenodd;clip-rule:evenodd;fill:#040404;}
	.st2{fill:#FFFFFF;stroke:#000000;stroke-miterlimit:10;}
</style>
<g id="svgg">
	<path id="path0" class="st0" d="M128.8,69.4c-7.4,0.8-12.7,2.4-20.2,6c-2.9,1.4-6.8,3.3-8.8,4.2C92,83.2,89.2,85.2,81.4,93
		l-7.3,7.3l-3.3,6.7c-4.9,9.9-6.6,19.5-4.6,26.1c0.3,1.1,0.7,2.9,0.9,4c1.8,12.5,16.2,24.6,26.9,22.6c1.2-0.2,4.1-0.4,6.2-0.4
		c3.7,0,7.8-0.7,11.7-2.1c0.7-0.2,2-0.7,3-0.9c10.6-3.1,18.3-8.2,30.6-20.3c10.3-10.1,12.1-11.4,13.7-9.8c1,1,0.4,2.1-3.2,5.7
		c-2,2-4,4.2-4.4,4.8c-0.4,0.7-1.1,1.8-1.7,2.6c-1.5,2.1-1.2,2.5,4.9,7c6.3,4.7,8.6,6.9,10.2,9.8c0.7,1.2,1.7,2.8,2.3,3.6
		c0.6,0.7,1.2,2.4,1.5,3.6c0.3,1.2,0.9,3.4,1.4,4.8c0.6,1.7,0.8,2.7,0.5,3c-2,2.7-1.9,1.3-2.1,21.1c-0.1,14.7-0.3,19-0.8,21.1
		c-0.4,1.8-0.5,3.7-0.4,5.8c0.1,1.7,0.5,7.7,0.8,13.2c0.4,6.6,0.8,10.7,1.2,11.9c0.3,1,0.6,3,0.6,4.3c0,1.6,0.3,3,0.8,4.1
		c0.4,0.9,0.8,1.9,0.8,2.3c0,0.4,0.4,1.4,0.8,2.3c0.4,0.9,0.8,1.8,0.8,2.1c0,0.3,1.4,3.1,3,6.3c1.7,3.2,3.7,7,4.5,8.6
		c3.5,6.7,9.2,14.4,14.3,19.3c3.4,3.2,5,5.1,5.2,5.9c0.6,2.6,1.4,2.8,2.8,0.6c1.1-1.8,2.2-2.1,3.2-0.7c2.1,3-2.7,15.9-8.4,22.3
		c-0.7,0.8-2.5,3.3-4,5.5l-2.7,4.1l0.8,1.7c2.7,5.6,12.1,9.7,17.9,7.8c3.6-1.2,5.5-7.5,5.9-19.9c0.4-11.8,0.8-14.8,2.2-15.4
		c1.3-0.5,2.5,1.4,2.8,4.6c0.3,2.9,0.4,3,2,4.5c1.7,1.6,7.3,5,8.1,5c0.2,0,2.6,0.7,5.3,1.6c3.7,1.2,5.1,1.5,5.9,1.3
		c0.6-0.2,1.6-0.2,2.2,0c0.6,0.2,1.9,0.2,2.8,0c0.9-0.2,3.2-0.6,5.2-0.8c2-0.2,4.2-0.7,5-1c2.5-1,6.9-2.2,9.4-2.7
		c3.9-0.7,5-1.2,5.6-2.4c1-2,4-3.5,11.4-6c2.7-0.9,6.3-2.8,14.4-7.6c4.6-2.7,12.7-10.5,17.1-16.6c1.6-2.1,3.4-4.4,4.1-5
		s2-2.3,3.1-3.9c1-1.6,2.2-3.3,2.6-3.9c4-6,7.4-15.2,7.2-19.4c-0.1-1.2,0.2-2.1,1.1-3.7c3.1-5.3,4.4-10.1,4.4-16.1
		c0-5.3-0.4-6.7-1.7-5.6c-0.3,0.2-1.6,1-2.9,1.7s-3.6,2.1-5.2,3.1c-3.3,2.2-10.4,6.4-10.8,6.4c-0.3,0-6.8,3-8.3,3.8
		c-0.6,0.3-1.4,0.6-1.9,0.6s-1.6,0.4-2.4,0.8c-0.9,0.4-1.8,0.8-2.1,0.8c-0.3,0-1.5,0.6-2.7,1.3s-3.2,1.7-4.4,2.2
		c-1.2,0.5-2.6,1.4-3,1.9l-0.8,1L289,250c-1.5-0.8-2.5-1.6-2.7-2.2c-0.1-0.5-1.5-2-3.1-3.4c-5.8-5-17.4-17.4-21.1-22.3
		c-5.8-7.9-26.4-27.6-31.9-30.6c-2.7-1.5-3.6-2.2-4.2-3.3c-0.4-0.8-1.6-2.6-2.7-3.9c-1.8-2.2-3.8-4.9-4.7-6.5
		c-0.2-0.4-1-1.5-1.7-2.6c-1.3-2-1.7-3.6-0.9-4.1c1.3-0.8,0.2-3.2-4.3-9.4c-2.8-3.8-5.9-8.6-6.4-9.8c-1.4-3.2-4-12.2-4-14
		c0-0.4-0.4-1.9-0.8-3.3c-0.5-1.6-0.8-3.6-0.8-5.4c0-2.2-0.3-3.8-1.4-7.1c-0.8-2.3-1.9-5.7-2.4-7.6c-0.6-1.9-1.5-4.3-2-5.4
		c-1.5-3.3-2.3-5.1-2.8-7c-0.3-1-1.1-3.2-1.8-4.8c-0.7-1.7-1.6-3.7-2-4.6c-1.9-4.6-15.6-18-19.2-18.9c-0.6-0.1-1.4-0.5-1.8-0.7
		c-0.8-0.5-4-1.6-8.8-3C152.1,68.9,138,68.4,128.8,69.4 M116.5,122.2c4.2,2.9,6,14.7,2.5,16.3c-4.8,2.2-10-6.5-8.1-13.5
		C111.8,121.7,114.1,120.5,116.5,122.2 M91.2,124c3.9,2.1,3.6,18.4-0.4,18.4c-1.8,0-5-3.3-5.8-6C83.3,130.5,87.5,122,91.2,124
		 M213.7,200.3c0.3,0.4,1.8,3.1,3.3,6.1c4.4,8.8,5.9,11.6,7.8,14.6c1,1.5,2.3,3.8,2.9,5c2.6,5.1,5.4,7.1,10.3,7.5
		c4,0.3,8.4-1.9,8.4-4.3c0-2.3-8.5-12.2-14.8-17.4c-3.9-3.2-7.6-6.9-9.1-9.1l-1-1.5l0.9-0.8c1.5-1.2,2-0.9,5,2.1
		c1.6,1.6,4.8,4.5,7.1,6.5c7.8,6.5,15.9,16.4,16,19.6c0.1,4.5-7,9.3-13.2,9c-5.1-0.3-11.3-3.4-11.3-5.6c0-0.4-6.2-11.2-7-12.3
		c-0.9-1.1-3.6-6.5-4.5-8.8c-0.5-1.2-1.3-2.9-1.9-3.7C209.8,202.9,210.8,196.9,213.7,200.3 M158.4,222c-1,0.6-8.9,2.4-10.5,2.4
		c-0.8,0-2.2,0.3-3,0.6s-3.4,0.7-5.8,0.8c-4.8,0.2-5.2,0.4-6.3,2.9c-2.1,4.6-0.3,8,5.1,9.8l2.8,0.9l2.8-0.8c1.6-0.4,3.2-1,3.7-1.3
		s1.7-0.6,2.7-0.8c2.3-0.4,5.3-1.5,7.7-2.8c1-0.5,2.7-1.3,3.8-1.8c2.3-0.9,2.3-1,1.6-7l-0.4-3l-1.8-0.1
		C159.8,221.6,158.7,221.8,158.4,222 M257.7,323.8c-4,1.4-4.1,1.5-4.1,6.6c0,5.9,0,5.9,5.1,5.9c4.5,0,7.4-1,8.2-2.7
		c0.8-1.7-1.9-7.4-4.5-9.6C261,322.6,261,322.6,257.7,323.8 M199.9,330.4c1.3,0.4,2.6,0.8,3.1,0.8c2.2,0,3.2,1.8,1.8,3.2
		c-2,2-9.2-0.4-9.2-3C195.6,329.5,196.6,329.3,199.9,330.4 M262.6,330.5c1.9,1.4-0.5,4-3.8,4c-4.1,0-4.3-2.4-0.3-3.7
		C261.5,329.9,261.7,329.9,262.6,330.5"/>
	<path id="path1" class="st1" d="M149.5,69.2c2.8,0.2,6.4,0.8,7.9,1.2c4.8,1.4,8,2.5,8.8,3c0.4,0.3,1.3,0.6,1.8,0.7
		c3.6,0.8,17.3,14.3,19.2,18.9c0.4,0.9,1.2,2.9,2,4.6c0.7,1.7,1.5,3.8,1.8,4.8c0.5,1.9,1.2,3.7,2.8,7c0.5,1.1,1.4,3.5,2,5.4
		s1.7,5.3,2.4,7.6c1.1,3.2,1.4,4.9,1.4,7.1c0,1.8,0.3,3.8,0.8,5.4c0.4,1.4,0.8,2.9,0.8,3.3c0,1.8,2.6,10.8,4,14
		c0.5,1.2,3.6,6,6.4,9.8c4.5,6.2,5.6,8.6,4.3,9.4c-0.8,0.5-0.4,2.1,0.9,4.1c0.7,1.1,1.5,2.3,1.7,2.6c0.9,1.6,2.9,4.3,4.7,6.5
		c1.1,1.3,2.3,3,2.7,3.9c0.6,1.2,1.5,1.9,4.2,3.3c5.5,3,26.1,22.7,31.9,30.6c3.7,4.9,15.3,17.3,21.1,22.3c1.6,1.4,3,2.9,3.1,3.4
		c0.1,0.6,1.1,1.4,2.7,2.2l2.4,1.3l0.8-1c0.5-0.5,1.8-1.4,3-1.9s3.2-1.5,4.4-2.2s2.4-1.3,2.7-1.3c0.3,0,1.2-0.4,2.1-0.8
		c0.9-0.4,2-0.8,2.4-0.8c0.5,0,1.3-0.3,1.9-0.6c1.6-0.8,8.1-3.8,8.3-3.8c0.3,0,7.5-4.3,10.8-6.4c1.6-1,3.9-2.4,5.2-3.1
		c1.3-0.7,2.6-1.4,2.9-1.7c1.3-1.1,1.7,0.3,1.7,5.6c0,6-1.3,10.8-4.4,16.1c-0.9,1.5-1.2,2.5-1.1,3.7c0.3,4.2-3.2,13.4-7.2,19.4
		c-0.4,0.6-1.6,2.3-2.6,3.9s-2.4,3.3-3.1,3.9s-2.5,2.8-4.1,5c-4.5,6.1-12.5,13.8-17.1,16.6c-8.1,4.8-11.7,6.7-14.4,7.6
		c-7.4,2.4-10.4,4-11.4,6c-0.7,1.3-1.7,1.7-5.6,2.4c-2.5,0.4-6.9,1.7-9.4,2.7c-0.8,0.3-3,0.7-5,1c-2,0.2-4.3,0.6-5.2,0.8
		c-0.9,0.2-2.2,0.2-2.8,0s-1.6-0.2-2.2,0c-0.8,0.3-2.2,0-5.9-1.3c-2.7-0.9-5-1.6-5.3-1.6c-0.8,0-6.3-3.4-8.1-5
		c-1.6-1.5-1.7-1.7-2-4.5c-0.3-3.2-1.5-5.2-2.8-4.6c-1.4,0.6-1.9,3.5-2.2,15.4c-0.4,12.4-2.2,18.7-5.9,19.9
		c-5.8,1.9-15.2-2.2-17.9-7.8l-0.8-1.7l2.7-4.1c1.5-2.3,3.3-4.8,4-5.5c5.6-6.4,10.5-19.3,8.4-22.3c-0.9-1.3-2-1.1-3.2,0.7
		c-1.4,2.2-2.2,2-2.8-0.6c-0.2-0.8-1.8-2.7-5.2-5.9c-5.1-4.9-10.8-12.6-14.3-19.3c-0.8-1.5-2.8-5.4-4.5-8.6s-3-6-3-6.3
		s-0.4-1.2-0.8-2.1c-0.4-0.9-0.8-1.9-0.8-2.3c0-0.4-0.4-1.4-0.8-2.3c-0.5-1-0.8-2.5-0.8-4.1c0-1.4-0.3-3.3-0.6-4.3
		c-0.4-1.2-0.8-5.3-1.2-11.9c-0.3-5.5-0.7-11.5-0.8-13.2c-0.1-2.1,0-4,0.4-5.8c0.5-2.1,0.6-6.4,0.8-21.1c0.2-19.9,0-18.4,2.1-21.1
		c0.3-0.4,0.1-1.3-0.5-3c-0.5-1.4-1.2-3.5-1.4-4.8c-0.3-1.2-0.9-2.9-1.5-3.6c-0.6-0.7-1.6-2.4-2.3-3.6c-1.6-2.8-4-5.1-10.2-9.8
		c-6.1-4.5-6.4-5-4.9-7c0.5-0.7,1.3-1.9,1.7-2.6c0.4-0.7,2.4-2.8,4.4-4.8c3.6-3.6,4.3-4.7,3.2-5.7c-1.6-1.6-3.4-0.3-13.7,9.8
		c-12.4,12.1-20,17.2-30.6,20.3c-1,0.3-2.3,0.7-3,0.9c-3.9,1.3-8,2.1-11.7,2.1c-2.2,0-5,0.2-6.2,0.4c-3.8,0.7-10.2-1-14.5-3.9
		c-5.7-4.1-11.5-13-12.4-19.1c-0.2-1.1-0.5-2.9-0.9-4c-1.9-6.6-0.2-16.2,4.6-26.1l3.3-6.7l7.3-7.3c7.8-7.8,10.6-9.8,18.4-13.4
		c2-0.9,5.9-2.8,8.8-4.2C120.6,69.6,132.3,67.8,149.5,69.2 M113.4,121.6c-5.2,2.1-3,15.4,2.7,16.9c3.5,0.9,4.7-0.4,4.7-5.2
		C120.8,126.6,116.8,120.2,113.4,121.6 M88.2,124.4c-4.5,3.6-4.8,12-0.6,16.1c4.2,4,6.1,2,6.1-6.3C93.8,125.7,91.6,121.8,88.2,124.4
		 M211.3,200.1c-1,1-0.3,4.5,1.4,6.9c0.6,0.8,1.4,2.5,1.9,3.7c0.9,2.3,3.6,7.8,4.5,8.8c0.9,1.1,7.2,12,7.4,12.3
		c2.5,2.9,5.8,5.4,10.9,5.6c6.2,0.3,12.8-4.4,12.8-8.9c0-3.2-7.8-13.2-15.6-19.7c-2.4-2-5.6-4.9-7.1-6.5c-3-3.1-3.6-3.3-5-2.1
		l-0.9,0.8l1,1.5c1.5,2.2,5.2,5.9,9.1,9.1c6.3,5.2,14.8,15.1,14.8,17.4c0,2.4-4.4,4.6-8.4,4.3c-4.9-0.4-7.7-2.4-10.3-7.5
		c-0.6-1.2-1.9-3.5-2.9-5c-1.9-3-3.5-5.8-7.8-14.6C213.5,199.5,212.7,198.6,211.3,200.1 M163,224.8c0.7,6,0.7,6.1-1.6,7
		c-1.1,0.5-2.8,1.3-3.8,1.8c-2.3,1.3-5.3,2.4-7.7,2.8c-1,0.2-2.3,0.6-2.7,0.8c-0.5,0.3-2.1,0.8-3.7,1.3l-2.8,0.8l-2.8-0.9
		c-5.4-1.7-7.2-5.2-5.1-9.8c1.1-2.5,1.6-2.7,6.3-2.9c2.4-0.1,5-0.4,5.8-0.8c0.8-0.3,2.2-0.6,3-0.6c1.6,0,9.5-1.8,10.5-2.4
		c0.3-0.2,1.4-0.3,2.4-0.3l1.8,0.1L163,224.8 M262.3,323.8c2.7,2.2,5.3,7.9,4.5,9.6c-0.8,1.8-3.7,2.7-8.2,2.7c-5.1,0-5.1,0-5.1-5.9
		c0-5.1,0.1-5.2,4.1-6.6C261,322.6,261,322.6,262.3,323.8 M196.1,330.1c-1.9,1.9,2.1,5.1,6.6,5.1c1.4,0,2.9-1.1,2.9-2.2
		c0-0.7-1.5-1.8-2.6-1.8c-0.5,0-1.8-0.4-3.1-0.8C197.3,329.5,196.7,329.4,196.1,330.1 M258.5,330.8c-4,1.3-3.9,3.7,0.3,3.7
		c3.3,0,5.7-2.6,3.8-4C261.7,329.9,261.5,329.9,258.5,330.8 M399.5,200c0,110.5-89.5,200-200,200s-200-89.5-200-200S89,0,199.5,0
		S399.5,89.5,399.5,200z"/>
</g>
<ellipse class="st2" cx="230.7" cy="63.5" rx="2" ry="31.5"/>
<ellipse class="st2" cx="47.4" cy="200" rx="2" ry="26"/>
<ellipse class="st2" cx="253.5" cy="142.5" rx="2" ry="31.5"/>
<ellipse class="st2" cx="169.9" cy="37.4" rx="2" ry="31.5"/>
<ellipse class="st2" cx="290.9" cy="101.5" rx="2" ry="31.5"/>
<ellipse class="st2" cx="75.7" cy="206.3" rx="1.8" ry="24.3"/>
<ellipse class="st2" cx="42.9" cy="121.4" rx="2" ry="31.5"/>
<ellipse class="st2" cx="131.9" cy="33.3" rx="2" ry="15.8"/>
<ellipse class="st2" cx="300.8" cy="184.4" rx="2" ry="31.5"/>
<ellipse class="st2" cx="337.6" cy="174" rx="2" ry="31.5"/>
<ellipse class="st2" cx="317.1" cy="107.3" rx="2" ry="31.5"/>
<ellipse class="st2" cx="267" cy="89.9" rx="2" ry="31.5"/>
<ellipse class="st2" cx="210.9" cy="100.2" rx="2" ry="31.5"/>
<ellipse class="st2" cx="366.8" cy="190.2" rx="2" ry="31.5"/>
<ellipse class="st2" cx="355.8" cy="133" rx="2" ry="31.5"/>
<ellipse class="st2" cx="250.5" cy="48" rx="2" ry="31.5"/>
<ellipse class="st2" cx="200" cy="48" rx="2" ry="31.5"/>
<ellipse class="st2" cx="277.2" cy="190.2" rx="2" ry="31.5"/>
<ellipse class="st2" cx="233.2" cy="152.9" rx="2" ry="31.5"/>
<ellipse class="st2" cx="89.6" cy="193.5" rx="1.7" ry="28.2"/>
<ellipse class="st2" cx="131.9" cy="194.2" rx="2" ry="24.2"/>
<ellipse class="st2" cx="71.7" cy="72.6" rx="1.9" ry="23.6"/>
<ellipse class="st2" cx="93.6" cy="52.9" rx="1.9" ry="20.9"/>
<ellipse class="st2" cx="110.4" cy="47.8" rx="1.9" ry="20.9"/>
<ellipse class="st2" cx="16" cy="176.1" rx="2" ry="31.5"/>
<ellipse class="st2" cx="277.2" cy="63.5" rx="2" ry="31.5"/>
</svg>
